<?xml version="1.0" standalone="no"?>
<!DOCTYPE svg PUBLIC "-//W3C//DTD SVG 20010904//EN"
 "http://www.w3.org/TR/2001/REC-SVG-20010904/DTD/svg10.dtd">
<svg version="1.0" xmlns="http://www.w3.org/2000/svg"
 width="1200.000000pt" height="1200.000000pt" viewBox="0 0 1200.000000 1200.000000"
 preserveAspectRatio="xMidYMid meet">
<metadata>
Created by potrace 1.11, written by Peter Selinger 2001-2013
</metadata>
<g transform="translate(0.000000,1200.000000) scale(0.100000,-0.100000)"
fill="#000000" stroke="none">
<path d="M5595 7869 c-566 -37 -649 -44 -1030 -89 -211 -25 -462 -61 -665 -95
-52 -9 -120 -20 -150 -25 -155 -26 -369 -65 -435 -80 -22 -5 -78 -16 -125 -25
-47 -9 -103 -20 -125 -25 -22 -5 -74 -16 -115 -25 -41 -9 -91 -20 -110 -25
-19 -4 -87 -20 -150 -34 -173 -40 -181 -42 -380 -92 -102 -25 -203 -50 -225
-55 -95 -23 -113 -27 -165 -42 -30 -9 -89 -25 -130 -36 -151 -40 -191 -51
-242 -66 -29 -8 -84 -24 -123 -34 -38 -11 -95 -27 -125 -36 -60 -18 -96 -28
-150 -44 -93 -27 -142 -42 -220 -66 -47 -15 -98 -31 -115 -35 -16 -4 -67 -20
-113 -34 -181 -57 -248 -78 -277 -87 -17 -5 -39 -14 -48 -21 -16 -12 -16 -16
2 -68 11 -30 36 -107 56 -171 20 -63 40 -121 45 -128 6 -10 34 -5 126 24 66
20 133 41 149 46 17 5 64 19 105 33 41 13 109 34 150 46 41 12 93 28 115 35
64 20 216 65 260 77 22 6 60 17 85 24 25 7 70 20 100 28 30 8 88 24 129 36
111 31 292 81 331 90 32 7 144 36 230 59 69 19 236 60 325 81 50 12 117 27
150 35 33 8 92 21 132 31 76 17 117 14 127 -11 5 -15 268 -393 398 -572 294
-406 563 -710 844 -954 255 -221 489 -367 789 -494 56 -23 243 -86 285 -95 19
-5 71 -17 115 -28 200 -48 423 -72 665 -72 348 0 663 50 984 155 645 212 1240
637 1711 1225 196 244 340 478 506 823 13 27 29 47 38 47 16 -1 117 -25 301
-73 207 -55 256 -68 280 -76 14 -5 43 -14 65 -19 37 -11 172 -50 240 -71 230
-71 334 -104 520 -166 259 -87 500 -171 708 -248 l67 -25 15 21 c8 12 15 27
15 34 0 7 4 21 9 31 5 9 32 77 60 150 l50 133 -32 14 c-18 8 -66 26 -107 40
-41 15 -84 30 -95 35 -11 5 -53 20 -92 34 -40 14 -103 37 -140 51 -76 27 -588
196 -728 240 -49 15 -110 34 -135 42 -25 8 -70 21 -100 30 -82 22 -110 30
-170 48 -86 26 -108 32 -210 59 -52 13 -122 32 -155 41 -161 43 -414 104 -560
136 -55 12 -118 25 -140 30 -22 5 -67 14 -99 20 -33 5 -62 12 -66 14 -4 2 -38
9 -76 16 -38 6 -87 15 -109 19 -90 18 -224 41 -280 50 -33 5 -105 16 -160 25
-120 19 -212 32 -320 45 -44 5 -138 17 -210 25 -182 22 -426 42 -800 65 -185
11 -1103 11 -1280 -1z m-122 -426 c-3 -10 -21 -36 -38 -58 -71 -88 -137 -236
-169 -378 -19 -81 -22 -314 -5 -385 27 -116 42 -159 94 -262 124 -246 341
-422 620 -501 69 -20 103 -23 250 -23 179 1 211 6 348 58 264 100 471 311 569
581 43 118 53 181 53 335 0 137 -4 164 -37 285 -22 75 -87 205 -144 286 l-57
81 114 -6 c63 -4 161 -12 219 -17 58 -5 150 -14 205 -19 132 -12 244 -25 390
-45 66 -9 149 -21 185 -25 36 -5 108 -16 160 -25 52 -9 120 -20 150 -25 123
-20 177 -30 225 -40 28 -6 73 -15 100 -20 204 -39 204 -39 195 -69 -7 -25 -59
-127 -125 -246 -58 -104 -260 -401 -302 -443 -6 -7 -29 -34 -50 -60 -99 -122
-339 -365 -457 -461 -374 -305 -760 -511 -1156 -615 -112 -30 -133 -35 -220
-50 -212 -37 -241 -40 -500 -39 -226 1 -284 4 -395 23 -165 28 -198 34 -265
54 -30 8 -66 18 -80 22 -14 3 -34 9 -45 14 -11 5 -54 21 -95 36 -420 153 -849
500 -1266 1026 -121 152 -161 205 -324 429 -91 125 -210 304 -210 316 0 6 26
17 58 23 31 6 75 15 97 19 22 5 72 14 110 21 39 6 104 17 145 25 41 7 107 18
145 24 39 6 111 17 160 25 50 8 126 19 170 25 44 7 109 16 145 21 36 5 128 16
205 25 77 8 176 20 220 25 101 12 318 31 455 40 172 11 160 12 153 -7z m951
-97 c165 -63 288 -192 348 -366 30 -86 32 -260 4 -335 -67 -185 -169 -299
-329 -370 -150 -66 -351 -56 -499 25 -125 68 -216 179 -279 340 -21 53 -18
281 4 342 62 173 206 318 370 372 67 23 86 25 202 21 89 -2 123 -8 179 -29z"/>
<path d="M9325 6653 c-54 -15 -100 -71 -124 -151 -9 -34 -10 -51 0 -80 15 -48
27 -62 67 -79 56 -23 101 -4 169 73 32 37 67 70 78 74 54 21 74 -49 32 -111
-18 -27 -31 -35 -62 -39 -33 -4 -43 -11 -58 -40 -16 -33 -16 -36 0 -48 46 -35
143 14 189 95 55 98 38 195 -40 232 -63 31 -104 15 -175 -71 -76 -91 -125
-103 -123 -29 1 45 28 79 65 83 26 2 36 10 51 41 10 21 16 40 14 42 -8 8 -63
13 -83 8z"/>
<path d="M2917 6395 c-87 -61 -162 -117 -167 -125 -10 -17 24 -70 46 -70 8 0
36 16 64 36 27 19 53 33 57 31 5 -3 26 -30 48 -61 75 -105 164 -114 239 -26
31 37 35 94 10 143 -26 50 -114 175 -127 180 -7 2 -83 -46 -170 -108z m198
-52 c27 -40 33 -91 13 -111 -7 -7 -26 -12 -44 -12 -26 0 -39 8 -63 39 -17 21
-31 45 -31 54 0 15 66 65 87 66 7 1 24 -16 38 -36z"/>
<path d="M9130 6348 c-25 -29 -160 -243 -160 -254 0 -7 78 -62 173 -123 144
-92 174 -108 186 -97 7 8 48 69 92 137 l78 124 -22 17 c-12 10 -29 17 -37 15
-8 -1 -38 -37 -66 -80 -29 -43 -56 -83 -62 -89 -12 -12 -82 26 -82 44 0 6 23
47 51 91 43 66 49 81 38 92 -33 32 -52 22 -101 -53 -27 -40 -55 -75 -64 -79
-16 -6 -64 22 -64 38 0 5 23 45 50 88 54 84 60 106 33 127 -23 17 -30 17 -43
2z"/>
<path d="M3280 6149 c-51 -43 -107 -89 -192 -159 -49 -39 -88 -76 -88 -83 0
-10 76 -112 107 -145 7 -7 29 -33 49 -57 20 -25 40 -45 45 -45 4 0 19 10 33
23 l26 22 -70 85 c-39 47 -70 88 -70 92 0 9 59 58 70 58 5 0 36 -34 71 -75
l61 -75 28 17 c35 20 32 29 -37 113 -29 35 -53 70 -53 76 0 7 12 22 28 32 34
24 36 23 116 -75 l58 -73 29 17 c36 21 36 35 4 71 -14 16 -55 66 -92 112 -38
47 -75 86 -83 87 -8 2 -26 -7 -40 -18z"/>
<path d="M8927 6040 c-39 -31 -41 -53 -11 -140 15 -44 25 -83 21 -86 -4 -4
-45 -2 -92 5 -95 15 -110 9 -141 -51 -8 -16 -18 -28 -23 -28 -19 0 -222 -204
-219 -221 4 -20 265 -299 281 -299 14 0 227 211 227 225 0 7 -9 20 -19 29 -25
23 -39 15 -116 -63 -33 -34 -67 -61 -76 -61 -10 0 -29 14 -44 32 l-27 32 66
65 c36 36 69 69 73 73 8 10 -26 48 -42 48 -7 0 -40 -27 -73 -60 -34 -33 -69
-60 -78 -60 -16 0 -54 35 -54 49 0 4 34 40 75 81 41 41 75 79 75 84 0 5 -7 18
-17 28 -15 17 -14 18 25 18 22 0 62 -4 89 -10 26 -5 73 -12 104 -15 32 -4 65
-14 75 -23 11 -10 39 -33 63 -51 48 -38 64 -36 91 13 14 25 14 27 -20 54 -74
58 -94 87 -124 183 -17 52 -33 98 -38 104 -4 5 -8 19 -8 31 0 32 -14 37 -43
14z"/>
<path d="M3406 5728 l-147 -143 35 -34 35 -34 54 52 c30 28 59 51 64 51 14 0
93 -87 93 -102 0 -16 -34 -72 -60 -100 -10 -11 -16 -27 -13 -37 10 -26 35 -51
52 -51 23 1 101 112 101 144 0 22 4 26 29 26 34 0 91 37 109 70 8 16 11 42 7
70 -5 40 -14 54 -97 137 -51 51 -97 93 -103 93 -6 0 -77 -64 -159 -142z m218
-8 c49 -43 60 -82 35 -115 -29 -36 -54 -31 -112 24 l-52 49 38 36 c21 20 42
36 47 36 5 0 25 -14 44 -30z"/>
<path d="M3794 5496 c-53 -53 -46 -100 32 -206 53 -74 54 -122 2 -122 -59 0
-111 64 -101 124 4 29 1 38 -18 52 -51 35 -69 18 -69 -66 0 -61 32 -111 100
-156 84 -56 168 -48 210 20 33 52 24 87 -53 203 -45 67 -46 98 -3 103 43 5 86
-40 86 -91 0 -59 57 -100 80 -58 27 52 3 128 -56 181 -45 39 -73 50 -131 50
-38 0 -50 -5 -79 -34z"/>
<path d="M8195 5317 c-32 -12 -211 -133 -221 -148 -5 -8 159 -261 209 -323
l24 -30 36 23 c41 25 41 33 -11 104 -19 26 -32 54 -28 62 8 21 82 65 109 65
14 0 40 -17 67 -45 24 -25 50 -45 57 -45 19 0 63 30 63 43 0 23 -91 116 -120
122 -28 6 -30 9 -30 54 0 57 -26 96 -76 117 -39 16 -39 16 -79 1z m58 -105
c20 -17 22 -50 4 -73 -7 -9 -32 -28 -56 -44 l-45 -28 -23 29 c-45 55 -46 61
-10 88 73 56 92 60 130 28z"/>
<path d="M4150 5260 c-59 -20 -92 -48 -128 -110 -22 -37 -27 -57 -27 -115 0
-90 21 -127 103 -178 34 -22 54 -27 105 -27 72 0 110 15 156 62 65 67 89 174
56 249 -45 103 -160 155 -265 119z m133 -88 c64 -43 75 -104 30 -174 -31 -50
-41 -61 -70 -76 -70 -38 -163 22 -163 103 0 67 86 165 145 165 16 0 42 -8 58
-18z"/>
<path d="M7863 5110 c-18 -11 -33 -22 -33 -24 0 -3 30 -64 66 -135 75 -149 78
-173 25 -208 -38 -26 -77 -29 -103 -9 -10 7 -45 66 -79 132 -34 65 -65 123
-69 128 -10 10 -48 1 -73 -18 -16 -12 -13 -22 48 -143 37 -74 80 -143 100
-163 31 -30 40 -33 92 -33 92 0 180 54 208 128 16 41 16 48 2 92 -20 60 -128
266 -142 270 -5 2 -25 -6 -42 -17z"/>
<path d="M4452 4903 c-48 -98 -88 -181 -90 -185 -6 -13 61 -47 75 -39 8 4 34
49 58 101 24 52 51 97 59 102 16 9 14 20 38 -186 13 -116 22 -132 77 -138 21
-3 30 8 65 78 95 188 138 283 132 293 -4 5 -20 16 -36 24 -35 18 -33 22 -94
-105 -26 -54 -51 -98 -56 -98 -12 0 -20 28 -26 94 -2 34 -10 94 -16 134 -10
65 -14 75 -39 88 -15 7 -35 14 -44 14 -10 0 -45 -60 -103 -177z"/>
<path d="M7330 4887 c-126 -59 -167 -180 -105 -310 47 -100 134 -142 239 -117
133 32 200 162 150 292 -19 49 -75 112 -118 134 -34 17 -130 17 -166 1z m137
-89 c40 -33 63 -87 63 -147 0 -54 -3 -62 -31 -85 -44 -38 -115 -37 -151 2 -80
85 -77 201 7 238 34 16 89 12 112 -8z"/>
<path d="M4939 4739 c-57 -68 -113 -135 -125 -148 -34 -37 -49 -70 -37 -82 5
-5 25 -12 44 -15 30 -5 37 -1 54 25 29 45 38 46 130 10 11 -4 28 -10 38 -13
13 -4 17 -16 17 -49 0 -48 8 -58 57 -75 23 -8 33 -7 36 1 2 7 1 105 -3 219 -6
230 -7 234 -72 244 -35 6 -36 5 -139 -117z m121 -73 c0 -36 -4 -67 -9 -70 -5
-3 -27 2 -50 12 l-40 17 40 53 c22 28 44 52 49 52 6 0 10 -29 10 -64z"/>
<path d="M7054 4788 c-14 -6 -29 -33 -43 -78 -37 -111 -38 -111 -104 -41 -57
61 -65 65 -124 63 -23 -2 -33 -7 -33 -18 0 -9 44 -62 98 -118 97 -100 98 -102
116 -178 19 -81 20 -83 76 -72 30 7 32 9 26 43 -4 20 -9 61 -12 92 -6 57 -6
61 55 229 17 47 31 86 31 88 0 6 -68 -1 -86 -10z"/>
<path d="M5311 4758 c-8 -21 -18 -64 -52 -233 -6 -27 -15 -66 -20 -86 -11 -44
-12 -79 -1 -79 10 -1 69 -14 182 -39 90 -20 96 -20 108 -4 7 10 11 27 10 38
-3 20 -21 28 -133 54 -27 7 -53 16 -58 20 -7 7 0 51 24 156 5 22 14 69 21 104
10 58 10 65 -7 77 -29 22 -64 17 -74 -8z"/>
<path d="M5665 4698 c-2 -7 -11 -69 -20 -138 -9 -69 -21 -153 -27 -188 -13
-76 -2 -95 51 -90 l35 3 12 85 c23 152 35 254 37 295 l2 40 -43 3 c-28 2 -44
-1 -47 -10z"/>
<path d="M5837 4684 c-4 -4 -7 -22 -7 -41 l0 -33 90 0 c71 0 92 -3 96 -15 4
-9 -33 -56 -103 -130 -109 -116 -133 -158 -109 -190 9 -11 49 -16 184 -21
l173 -7 -3 39 -3 39 -80 3 c-96 3 -125 8 -125 25 0 6 24 37 53 67 163 172 167
177 167 214 0 19 -3 37 -7 39 -15 8 -318 19 -326 11z"/>
<path d="M6294 4683 c-48 -3 -63 -8 -66 -21 -8 -37 14 -397 26 -405 11 -8 207
-1 279 9 37 6 38 7 35 42 l-3 37 -112 -4 -112 -3 -6 25 c-4 14 -5 36 -3 48 3
23 8 24 106 33 l102 8 0 35 0 34 -102 -2 -103 -2 0 44 0 44 105 5 105 5 0 35
0 35 -95 1 c-52 0 -123 -1 -156 -3z"/>
</g>
</svg>
