<?xml version="1.0" standalone="no"?>
<!DOCTYPE svg PUBLIC "-//W3C//DTD SVG 20010904//EN"
 "http://www.w3.org/TR/2001/REC-SVG-20010904/DTD/svg10.dtd">
<svg version="1.0" xmlns="http://www.w3.org/2000/svg"
 width="1200.000000pt" height="1200.000000pt" viewBox="0 0 1200.000000 1200.000000"
 preserveAspectRatio="xMidYMid meet">
<metadata>
Created by potrace 1.11, written by Peter Selinger 2001-2013
</metadata>
<g transform="translate(0.000000,1200.000000) scale(0.100000,-0.100000)"
fill="#000000" stroke="none">
<path d="M6227 7884 c-1 -1 -153 -5 -337 -8 -184 -4 -355 -9 -380 -11 -25 -2
-90 -6 -145 -10 -55 -3 -176 -12 -270 -20 -93 -8 -199 -17 -235 -20 -36 -3
-99 -10 -140 -15 -41 -5 -95 -11 -120 -14 -65 -8 -420 -56 -450 -61 -14 -2
-70 -11 -125 -19 -55 -9 -118 -18 -140 -22 -31 -4 -342 -60 -550 -98 -34 -6
-222 -46 -415 -87 -655 -141 -1626 -402 -2325 -625 -219 -70 -225 -72 -225
-98 0 -23 102 -342 113 -353 4 -3 82 18 174 47 721 225 1292 384 1913 534 436
104 386 104 458 3 32 -45 83 -118 113 -162 30 -44 58 -84 62 -90 4 -5 61 -85
126 -176 390 -550 722 -910 1106 -1201 272 -205 606 -362 955 -448 157 -38
208 -47 395 -69 118 -14 575 -6 710 13 587 80 1098 297 1604 680 57 43 134
105 170 136 58 50 320 311 396 395 50 54 180 219 230 290 28 39 57 78 66 88
16 17 136 217 197 327 17 30 59 112 93 183 35 71 69 127 77 127 14 0 328 -81
507 -131 61 -17 124 -34 140 -38 247 -66 1017 -319 1373 -452 74 -28 143 -49
155 -47 18 2 33 32 89 178 62 163 65 175 48 187 -10 7 -69 31 -131 53 -63 22
-123 44 -134 50 -30 14 -390 138 -635 218 -642 210 -1282 381 -1850 496 -464
94 -962 171 -1295 201 -38 4 -81 8 -95 10 -14 2 -65 7 -115 10 -49 4 -106 8
-125 10 -19 2 -84 6 -145 10 -60 4 -123 9 -140 11 -49 6 -741 23 -748 18z
m953 -439 c25 -2 81 -7 125 -10 86 -6 256 -21 345 -31 186 -19 630 -86 870
-131 74 -14 149 -27 165 -30 88 -13 207 -47 212 -59 16 -41 -254 -486 -421
-693 -394 -490 -856 -841 -1383 -1049 -190 -75 -308 -108 -558 -154 -109 -21
-149 -23 -440 -23 -351 1 -430 10 -683 75 -301 78 -653 273 -915 508 -164 146
-402 399 -560 594 -121 149 -509 686 -523 723 -3 7 7 17 23 23 23 10 317 66
443 86 19 3 105 16 190 30 186 30 466 68 670 91 25 3 61 7 80 10 114 14 340
32 513 41 145 8 148 6 98 -64 -74 -101 -140 -252 -166 -379 -22 -107 -20 -320
4 -416 87 -336 305 -581 631 -704 148 -57 403 -67 569 -24 333 87 618 372 700
698 36 141 33 388 -5 523 -23 79 -98 232 -150 303 -24 34 -44 65 -44 70 0 8
69 5 210 -8z m-777 -99 c88 -31 185 -95 242 -159 61 -67 123 -195 135 -275 13
-96 5 -229 -20 -294 -58 -156 -186 -286 -337 -345 -60 -23 -82 -26 -198 -27
-156 0 -201 12 -312 86 -70 48 -165 147 -190 200 -52 109 -63 155 -63 265 0
183 40 281 164 406 78 78 99 93 191 133 63 27 92 32 210 33 92 0 121 -3 178
-23z"/>
<path d="M9314 6650 c-74 -30 -137 -156 -115 -230 16 -53 42 -73 105 -78 l53
-4 78 76 c78 76 100 87 123 64 34 -34 -11 -118 -75 -138 -44 -14 -63 -34 -63
-66 0 -31 14 -37 66 -29 85 12 151 99 158 205 4 76 -22 117 -91 140 -44 15
-96 -12 -157 -84 -59 -70 -79 -82 -100 -60 -35 34 -1 110 52 116 19 2 32 13
45 38 16 33 16 36 0 48 -19 14 -48 15 -79 2z"/>
<path d="M2941 6413 c-78 -53 -156 -109 -172 -124 l-30 -28 26 -35 26 -35 54
35 c30 19 58 34 62 34 5 0 32 -27 61 -60 80 -91 158 -102 226 -32 36 39 47 80
31 125 -13 37 -76 138 -118 190 l-23 27 -143 -97z m176 -78 c40 -70 27 -115
-33 -115 -25 0 -39 8 -63 37 -17 21 -31 45 -31 55 0 20 68 70 90 66 8 -2 25
-21 37 -43z"/>
<path d="M9133 6352 c-13 -9 -113 -163 -143 -221 -18 -36 -19 -46 -8 -57 23
-23 321 -204 335 -204 7 0 52 59 99 131 l86 132 -29 22 c-34 28 -37 27 -104
-76 -30 -45 -59 -79 -68 -79 -13 0 -38 13 -69 36 -5 3 27 63 67 123 l35 53
-22 19 c-13 10 -30 15 -38 12 -8 -3 -37 -39 -65 -79 -29 -41 -55 -74 -60 -74
-4 0 -20 10 -34 23 l-27 22 56 89 c45 71 54 92 44 103 -17 21 -43 32 -55 25z"/>
<path d="M3290 6153 c-39 -26 -278 -222 -285 -233 -3 -5 -1 -19 5 -30 21 -39
170 -218 186 -224 16 -6 54 18 54 35 0 5 -30 47 -66 95 l-66 87 28 23 c15 13
33 24 40 24 13 0 43 -29 111 -109 27 -31 31 -32 51 -20 12 7 24 19 26 25 3 7
-20 44 -50 82 -60 78 -66 103 -29 120 14 7 28 12 30 12 2 0 33 -36 70 -80 37
-44 70 -80 74 -80 4 0 17 9 30 21 21 20 22 21 4 49 -40 62 -170 220 -182 220
-4 0 -18 -8 -31 -17z"/>
<path d="M8923 6037 c-32 -36 -33 -52 -9 -134 13 -43 21 -81 17 -85 -3 -4 -43
-2 -88 4 l-82 10 -141 -138 c-78 -77 -146 -147 -151 -157 -14 -25 -4 -39 147
-194 l129 -133 113 110 c61 60 112 116 112 123 0 25 -26 50 -46 43 -10 -3 -50
-35 -89 -71 -38 -35 -73 -64 -76 -65 -10 0 -59 48 -59 58 0 5 24 33 53 63 66
67 79 89 66 112 -17 30 -46 19 -112 -43 -36 -33 -69 -60 -74 -60 -14 0 -43 34
-43 51 0 8 27 41 61 74 73 73 85 91 68 111 -6 8 -9 17 -6 21 7 7 185 -14 239
-28 20 -5 64 -30 97 -55 34 -25 68 -44 76 -41 7 3 21 17 31 32 16 25 16 25
-47 93 -60 63 -67 76 -103 185 -21 64 -44 121 -51 127 -8 7 -18 3 -32 -13z"/>
<path d="M3411 5733 l-150 -148 30 -33 c35 -37 41 -36 107 27 48 46 60 45 106
-10 36 -42 33 -77 -9 -132 -38 -50 -37 -69 7 -96 17 -10 24 -9 40 6 32 28 78
104 78 129 0 17 8 23 41 28 81 13 131 103 95 170 -15 29 -122 145 -173 189
-21 18 -23 17 -172 -130z m189 -3 c46 -25 78 -121 44 -134 -29 -11 -44 -6 -84
30 -47 42 -49 56 -15 89 27 28 29 29 55 15z"/>
<path d="M3823 5519 c-31 -15 -45 -30 -53 -55 -15 -46 -6 -80 39 -150 21 -33
41 -69 45 -81 22 -69 -41 -87 -93 -28 -25 28 -31 45 -31 79 0 35 -5 47 -25 60
-37 25 -55 20 -62 -16 -4 -18 -7 -39 -6 -45 0 -7 1 -21 2 -31 2 -32 56 -103
101 -133 35 -23 54 -29 99 -29 65 0 97 17 116 62 15 36 6 94 -21 136 -72 114
-77 125 -67 141 29 47 113 -6 113 -71 0 -23 8 -42 23 -56 28 -26 31 -27 51 -6
44 43 -5 161 -86 207 -64 37 -96 41 -145 16z"/>
<path d="M8175 5309 c-55 -29 -193 -129 -198 -143 -6 -14 183 -302 214 -328
21 -18 32 -16 73 15 18 13 18 16 -17 69 -43 64 -45 77 -14 105 61 56 97 54
155 -13 41 -45 41 -45 71 -30 16 9 33 21 36 26 12 20 -61 107 -113 134 -25 13
-30 22 -34 64 -5 53 -31 97 -63 107 -50 15 -72 14 -110 -6z m69 -112 c25 -33
18 -46 -42 -90 l-42 -30 -25 29 c-37 43 -34 54 30 97 46 31 51 31 79 -6z"/>
<path d="M4156 5263 c-105 -31 -183 -163 -162 -276 8 -43 67 -112 118 -138 45
-23 119 -27 172 -9 72 24 146 139 146 229 0 127 -146 231 -274 194z m107 -94
c75 -39 89 -105 39 -175 -49 -68 -79 -81 -141 -64 -73 19 -89 96 -39 179 23
36 72 71 101 71 10 0 28 -5 40 -11z"/>
<path d="M7870 5117 c-36 -19 -30 -49 34 -187 31 -65 56 -125 56 -133 0 -19
-54 -65 -85 -73 -13 -3 -32 -1 -44 5 -19 11 -66 85 -121 193 -37 72 -46 81
-72 74 -13 -3 -31 -12 -41 -20 -18 -14 -15 -21 44 -137 34 -67 75 -137 91
-155 68 -77 183 -64 281 30 20 21 38 46 38 56 1 11 2 26 3 33 5 36 -124 317
-149 324 -5 1 -21 -3 -35 -10z"/>
<path d="M4526 5048 c-13 -24 -57 -110 -97 -191 -69 -142 -71 -148 -53 -162
10 -8 30 -15 44 -15 23 0 32 12 70 91 41 83 65 118 74 108 2 -2 11 -61 20
-131 9 -70 21 -138 27 -152 13 -27 61 -52 79 -41 10 6 96 178 157 315 l24 55
-22 17 c-42 35 -57 22 -118 -99 -23 -46 -45 -83 -50 -83 -12 0 -19 30 -32 146
-12 116 -23 141 -66 166 l-32 19 -25 -43z"/>
<path d="M7350 4892 c-27 -4 -75 -35 -103 -67 -79 -86 -66 -221 28 -318 46
-48 101 -63 174 -48 74 15 110 38 148 95 30 43 32 53 29 114 -2 43 -11 83 -24
109 -30 58 -95 111 -146 118 -39 5 -51 5 -106 -3z m107 -102 c62 -37 89 -139
53 -198 -64 -104 -210 -32 -210 104 0 94 79 142 157 94z"/>
<path d="M4993 4803 c-110 -126 -223 -267 -223 -280 0 -15 31 -33 57 -33 11 0
32 14 49 31 25 27 34 30 67 25 20 -4 54 -13 75 -22 35 -14 39 -19 48 -67 8
-47 12 -52 42 -61 18 -5 36 -6 40 -2 8 8 6 294 -3 376 -7 64 -18 79 -66 86
-33 6 -38 2 -86 -53z m53 -190 c-3 -3 -21 -1 -41 3 l-37 9 39 50 38 50 3 -54
c2 -29 1 -55 -2 -58z"/>
<path d="M7070 4792 c-26 -13 -39 -29 -53 -67 -11 -27 -26 -66 -34 -85 l-15
-35 -63 69 -62 69 -43 -9 c-24 -5 -45 -14 -47 -20 -2 -6 25 -42 60 -80 126
-136 135 -149 151 -234 3 -14 11 -34 19 -44 12 -17 19 -18 48 -10 38 11 39 17
24 122 -7 48 -3 68 35 182 39 116 45 160 23 160 -4 0 -24 -8 -43 -18z"/>
<path d="M5306 4759 c-3 -13 -17 -80 -32 -149 -46 -217 -48 -230 -33 -245 15
-13 210 -55 258 -55 23 0 30 5 35 26 4 15 3 31 -2 36 -5 5 -45 18 -88 30 -44
11 -84 24 -90 29 -9 7 -4 46 18 147 41 185 40 188 -25 199 -32 5 -37 3 -41
-18z"/>
<path d="M5655 4648 c-4 -35 -9 -72 -11 -83 -12 -70 -19 -140 -19 -205 l0 -74
40 -1 40 0 12 80 c26 170 39 303 31 324 -6 16 -16 21 -47 21 l-39 0 -7 -62z"/>
<path d="M6468 4696 c-1 -2 -52 -6 -111 -10 -60 -3 -113 -9 -119 -12 -15 -9
-4 -392 11 -407 13 -13 155 -16 243 -6 70 8 89 23 81 62 l-6 28 -111 -3 -111
-3 -3 48 -3 47 68 1 c37 0 79 3 93 5 56 10 66 63 13 65 -15 1 -39 2 -53 4 -14
1 -49 3 -78 3 l-53 2 3 37 c4 44 19 50 133 55 l73 3 4 34 c2 18 -1 35 -6 37
-18 6 -64 13 -68 10z"/>
<path d="M5826 4665 c-10 -41 8 -55 75 -55 58 0 109 -13 109 -27 0 -5 -43 -55
-95 -113 -124 -137 -146 -184 -97 -206 9 -4 90 -9 180 -12 l162 -4 0 35 c0 40
9 36 -142 52 -32 4 -60 11 -63 16 -6 8 13 30 145 172 48 51 81 112 73 133 -8
20 -26 23 -187 30 l-153 6 -7 -27z"/>
</g>
</svg>
